<?xml version="1.0" standalone="no"?>
<!DOCTYPE svg PUBLIC "-//W3C//DTD SVG 20010904//EN"
 "http://www.w3.org/TR/2001/REC-SVG-20010904/DTD/svg10.dtd">
<svg id="my-svg" version="1.0" xmlns="http://www.w3.org/2000/svg"
 width="2400.000000pt" height="2400.000000pt" viewBox="0 0 2400.000000 2400.000000"
 preserveAspectRatio="xMidYMid meet">
<metadata>
Created by potrace 1.16, written by Peter Selinger 2001-2019
</metadata>
<g transform="translate(0.000000,2400.000000) scale(0.100000,-0.100000)"
fill="#fff" stroke="none">
<path d="M4510 14610 c-347 -6 -381 -8 -455 -29 -204 -57 -367 -183 -436 -337
-95 -211 -51 -471 105 -628 158 -159 375 -176 523 -42 83 75 122 224 89 339
-28 98 -136 193 -239 212 l-38 7 22 -36 c40 -69 6 -160 -75 -197 -78 -35 -136
-19 -175 51 -19 34 -23 52 -19 103 5 83 41 137 108 166 48 21 62 21 438 19
l388 -3 -240 -487 c-133 -267 -250 -496 -261 -508 -25 -27 -76 -54 -134 -70
-38 -10 -42 -14 -36 -33 49 -153 45 -166 -251 -786 -135 -284 -269 -559 -297
-611 -192 -362 -377 -510 -638 -510 -217 0 -403 144 -479 369 -57 171 -25 323
92 438 85 83 219 113 299 67 47 -28 60 -58 57 -130 -4 -70 -38 -132 -89 -163
l-30 -18 49 -7 c210 -28 426 158 440 379 12 195 -94 327 -311 385 -190 52
-392 -13 -557 -179 -146 -147 -211 -312 -213 -541 -1 -147 14 -216 72 -335 69
-141 167 -237 316 -311 140 -69 222 -87 400 -87 292 -1 514 67 720 220 102 75
186 169 279 308 104 158 153 247 345 637 109 222 180 353 194 362 27 17 117
37 312 70 176 29 523 71 530 64 3 -3 -69 -157 -160 -342 -91 -186 -172 -365
-181 -399 -64 -246 83 -378 357 -323 179 37 458 141 714 266 183 91 205 105
206 132 0 13 9 -11 20 -52 36 -140 111 -231 243 -295 136 -66 292 -87 491 -66
331 36 637 155 891 346 l84 64 0 -44 c0 -153 75 -283 195 -336 40 -18 68 -23
140 -23 104 0 196 24 309 81 39 20 72 31 73 27 11 -34 47 -74 79 -90 56 -27
167 -25 264 5 144 44 390 171 587 303 56 37 104 68 106 68 2 0 4 -26 6 -57 4
-114 53 -223 125 -278 43 -33 142 -65 202 -65 79 0 197 30 293 76 51 24 95 44
97 44 2 0 10 -15 19 -34 26 -54 71 -71 190 -71 117 1 206 23 347 87 97 43 252
131 327 186 24 18 47 32 50 32 4 0 8 -21 9 -46 5 -133 137 -243 334 -280 114
-22 333 -15 441 14 180 49 332 154 388 267 19 41 24 65 24 130 -1 69 -5 90
-33 149 -34 72 -118 216 -163 279 -24 32 -26 43 -18 65 6 14 15 33 22 41 9 11
8 16 -7 25 -132 79 -170 134 -170 246 1 142 97 250 224 250 43 0 56 -5 86 -32
59 -55 64 -140 13 -240 -11 -22 -18 -43 -14 -46 4 -4 41 -7 83 -6 208 1 337
170 258 339 -109 234 -563 276 -834 76 -63 -47 -129 -142 -153 -223 -27 -87
-23 -210 10 -306 21 -61 21 -65 5 -117 -10 -30 -16 -56 -13 -58 2 -1 30 -14
61 -29 66 -31 77 -47 162 -218 80 -162 87 -254 25 -324 -40 -46 -99 -68 -180
-69 -81 0 -130 25 -159 84 -27 51 -27 133 0 176 21 35 81 83 130 103 16 7 30
16 30 21 0 14 -210 10 -266 -5 -28 -7 -74 -25 -103 -40 -29 -14 -55 -25 -59
-23 -4 1 -35 -15 -69 -36 -88 -54 -315 -162 -397 -188 -63 -21 -71 -21 -95 -8
-47 27 -36 64 104 352 43 90 52 101 108 139 34 23 63 42 65 43 1 1 -6 21 -17
45 l-19 43 354 709 355 709 -33 -6 c-18 -4 -148 -30 -288 -58 l-254 -52 -38
-65 c-21 -36 -38 -68 -38 -72 0 -5 25 -8 55 -8 30 0 55 -5 55 -10 0 -6 -59
-127 -130 -271 l-131 -260 -33 29 c-66 58 -121 77 -226 77 -111 0 -198 -23
-325 -87 -215 -108 -379 -260 -559 -521 -60 -85 -127 -154 -183 -186 -13 -7
-13 -12 2 -41 20 -39 17 -74 -18 -200 -22 -81 -26 -86 -71 -117 -165 -109
-426 -223 -510 -223 -93 0 -89 39 28 276 51 104 104 199 117 210 13 12 45 34
72 49 26 15 47 28 47 30 0 1 -7 16 -15 31 -8 16 -15 39 -15 51 0 13 72 171
159 353 l159 330 -182 0 -182 0 -17 -35 -17 -35 -36 25 c-83 56 -236 78 -364
51 -97 -20 -255 -98 -362 -179 -114 -86 -251 -226 -328 -336 -36 -51 -77 -111
-93 -132 -24 -34 -80 -82 -127 -109 -12 -7 -13 -13 -4 -27 26 -42 26 -81 0
-163 -14 -44 -29 -98 -32 -120 -4 -22 -11 -37 -16 -34 -5 3 -52 -24 -106 -59
-249 -166 -515 -257 -756 -257 -58 0 -129 5 -158 11 -174 37 -286 164 -276
315 l3 48 105 17 c199 31 404 92 593 175 264 115 416 270 463 471 44 190 -58
346 -256 393 -83 20 -231 16 -326 -9 -305 -79 -595 -301 -813 -624 -34 -51
-66 -84 -105 -110 l-56 -37 15 -30 c20 -39 19 -57 -9 -142 -14 -40 -27 -93
-31 -118 l-7 -45 -111 -52 c-184 -85 -491 -183 -573 -183 -51 0 -78 31 -71 84
4 40 173 421 264 598 36 71 61 103 130 168 46 44 95 83 108 86 l23 6 -19 43
c-10 24 -20 68 -20 98 -2 53 10 77 374 801 207 410 372 746 367 746 -8 0 -670
-134 -715 -144 -12 -3 -40 -40 -72 -95 -29 -50 -53 -93 -53 -95 0 -3 35 -6 79
-8 l78 -3 -73 -150 c-338 -690 -454 -929 -454 -936 0 -5 -179 -9 -400 -9 -220
0 -400 2 -400 5 0 3 38 82 84 177 160 331 618 1273 627 1291 9 16 -6 17 -268
15 -153 -1 -447 -5 -653 -8z m6415 -1501 c132 -36 164 -220 57 -327 -62 -62
-123 -87 -217 -86 -44 0 -97 6 -118 13 -21 7 -41 10 -44 7 -17 -16 86 -142
143 -174 18 -10 9 -31 -123 -295 l-142 -284 -45 -12 c-143 -36 -222 15 -245
157 -10 64 -3 168 19 267 10 44 17 55 66 90 31 22 58 43 60 47 3 4 -5 26 -17
49 -26 53 -22 107 14 181 80 161 271 316 447 362 68 18 94 19 145 5z m-1725
-25 c52 -30 73 -66 78 -133 7 -100 -41 -173 -148 -227 -46 -24 -68 -28 -130
-28 -41 0 -92 6 -113 13 -21 7 -41 10 -45 6 -3 -3 4 -26 17 -51 23 -43 71 -92
120 -124 l23 -16 -139 -279 c-155 -310 -149 -303 -256 -304 -100 -2 -155 54
-177 179 -13 72 -9 118 22 233 20 76 22 80 74 114 30 20 54 39 54 43 0 4 -9
29 -21 55 -27 61 -20 110 28 207 67 136 225 268 383 320 71 23 183 20 230 -8z
m-1760 -40 c79 -32 96 -128 41 -239 -75 -151 -223 -262 -482 -358 -108 -41
-289 -90 -298 -82 -11 12 21 104 69 200 113 225 336 431 520 481 63 17 103 17
150 -2z"/>

<path d="M14124 13942 l-282 -55 -36 -67 c-20 -37 -36 -70 -36 -74 0 -3 25 -6
55 -6 30 0 55 -3 54 -7 0 -5 -53 -112 -117 -240 l-117 -231 -67 -1 c-148 0
-129 9 -176 -86 -48 -97 -52 -88 61 -124 37 -13 67 -24 67 -26 0 -2 -47 -95
-105 -207 -106 -203 -135 -244 -219 -303 -28 -20 -29 -21 -12 -52 9 -18 16
-41 16 -52 0 -11 -52 -126 -117 -255 -132 -265 -142 -305 -105 -389 60 -136
241 -142 572 -19 255 95 576 249 718 344 23 16 42 26 42 22 0 -4 -47 -99 -105
-210 -58 -112 -105 -206 -105 -209 0 -3 89 -5 198 -5 l197 0 33 63 c19 34 92
175 164 312 168 322 178 337 254 391 l63 45 -19 32 c-27 43 -25 63 11 154 61
155 176 302 278 354 58 30 152 38 185 16 51 -34 41 -118 -23 -204 -20 -26 -54
-59 -75 -73 l-39 -25 64 -13 c123 -24 257 5 337 73 24 21 54 63 73 101 27 54
32 77 33 137 1 90 -20 129 -89 172 -47 29 -52 30 -169 30 -110 -1 -129 -4
-211 -32 -49 -18 -91 -30 -93 -28 -2 2 4 17 13 35 9 18 14 34 12 37 -4 3 -448
-81 -545 -104 -15 -3 -36 -29 -62 -73 -22 -38 -40 -71 -40 -74 0 -3 25 -6 55
-6 30 0 55 -5 55 -10 0 -22 -174 -358 -206 -396 -18 -23 -54 -55 -79 -70 -48
-30 -48 -31 -24 -92 13 -31 11 -38 -51 -163 -67 -135 -90 -170 -65 -99 8 22
12 40 10 40 -2 0 -93 -45 -202 -100 -181 -92 -360 -168 -503 -216 -77 -26
-200 -26 -229 0 -12 11 -21 29 -21 41 0 27 113 258 181 372 47 77 78 111 144
159 l29 22 -18 40 c-22 48 -23 44 43 191 57 128 123 235 159 259 13 8 83 27
155 41 l131 26 59 98 c33 53 57 100 54 103 -3 3 -66 5 -141 5 -75 -1 -136 2
-136 6 0 4 80 168 178 363 207 415 186 370 175 369 -4 0 -135 -26 -289 -57z"/>
<path d="M2191 13938 c-10 -24 -62 -142 -115 -263 -80 -180 -95 -221 -83 -230
7 -5 103 -89 212 -185 109 -96 203 -174 209 -172 17 5 459 263 473 276 9 8 -3
76 -48 280 -33 149 -62 272 -65 275 -2 3 -105 15 -227 27 -122 12 -248 25
-280 29 l-57 6 -19 -43z"/>
<path d="M16763 13281 c-265 -72 -560 -291 -751 -560 -26 -36 -80 -99 -121
-139 -72 -71 -73 -73 -61 -102 14 -34 10 -67 -20 -165 -67 -219 -33 -424 88
-537 70 -66 143 -91 262 -91 117 1 216 26 344 86 266 126 458 314 660 645 l67
109 87 21 c169 42 369 161 522 312 l90 88 -77 -151 c-78 -151 -120 -207 -201
-267 -33 -25 -33 -25 -18 -55 9 -16 16 -41 16 -54 0 -13 -81 -183 -180 -378
l-180 -353 199 0 199 0 177 348 c98 191 189 360 204 375 14 16 45 42 69 58 47
33 49 41 25 90 -17 33 -16 34 21 104 131 240 253 347 430 375 74 12 101 8 110
-16 3 -9 -36 -97 -91 -205 -98 -192 -113 -212 -213 -289 -33 -25 -33 -26 -16
-57 9 -18 16 -41 16 -52 0 -11 -50 -121 -111 -246 -119 -243 -136 -299 -110
-378 26 -79 117 -124 228 -114 128 12 416 144 639 292 l120 81 11 -81 c22
-160 94 -250 237 -299 16 -5 3 -17 -65 -57 -183 -109 -299 -217 -364 -341 -65
-122 -54 -193 38 -255 64 -43 138 -57 272 -51 88 4 129 12 205 37 161 54 317
155 436 284 76 82 112 139 219 348 l89 175 56 23 c112 45 557 209 626 231 69
22 72 25 78 59 6 39 8 91 3 91 -2 0 -151 -49 -332 -110 -180 -60 -330 -110
-332 -110 -2 0 42 91 99 202 l102 201 68 50 c37 27 68 52 68 56 -1 3 -7 17
-15 31 -8 14 -14 34 -15 45 0 18 149 321 276 561 30 56 54 104 54 108 0 3 -89
6 -198 6 l-198 0 -17 -36 -17 -36 -37 33 c-64 56 -116 73 -218 73 -109 0 -189
-20 -310 -78 -172 -83 -341 -226 -495 -421 -47 -59 -103 -130 -125 -158 -23
-29 -64 -70 -92 -92 -40 -30 -51 -45 -47 -60 17 -68 15 -99 -12 -196 l-28
-102 -61 -39 c-33 -22 -126 -72 -206 -112 -201 -100 -319 -123 -319 -61 0 14
45 115 100 224 101 201 129 240 207 286 l31 18 -20 44 -19 43 111 223 c115
231 132 283 120 363 -14 93 -102 132 -269 119 -105 -8 -285 -53 -375 -94 -36
-16 -66 -28 -66 -25 0 3 9 23 20 44 11 22 17 40 14 40 -10 0 -526 -100 -544
-105 -8 -3 -33 -39 -55 -80 -35 -66 -43 -75 -69 -75 -19 0 -46 -15 -85 -48
-135 -117 -272 -199 -368 -220 -50 -11 -49 -15 -33 103 25 188 -60 364 -209
434 -48 22 -71 26 -166 28 -83 2 -128 -2 -182 -16z m127 -186 c5 -3 17 -20 26
-38 22 -42 14 -157 -18 -254 l-23 -72 -53 18 c-111 38 -170 138 -142 240 26
98 134 153 210 106z m3544 -18 c98 -65 82 -262 -27 -335 -100 -66 -170 -74
-321 -36 l-28 7 22 -44 c13 -24 49 -70 81 -102 33 -32 59 -61 59 -63 0 -3 -63
-128 -141 -278 l-141 -274 -44 -12 c-58 -17 -134 -8 -172 18 -52 37 -72 94
-72 203 0 52 5 114 11 139 26 115 27 117 88 160 l59 42 -25 54 c-23 50 -24 59
-13 102 42 166 238 361 427 423 72 24 198 21 237 -4z m-3907 -345 c56 -81 134
-139 236 -171 20 -7 37 -17 37 -23 0 -17 -133 -237 -186 -308 -27 -36 -87
-104 -133 -153 -134 -139 -242 -180 -289 -109 -37 57 -12 252 54 416 20 50 33
67 74 95 28 19 50 37 50 41 0 4 -9 29 -21 55 -18 41 -19 53 -9 92 13 55 47
123 91 182 l32 45 14 -55 c7 -29 30 -78 50 -107z m3263 -1086 c0 -15 -115
-241 -146 -287 -71 -105 -179 -199 -229 -199 -39 0 -65 28 -65 69 0 116 153
285 347 382 74 37 93 44 93 35z"/>




<path d="M20521 11259 c-10 -24 -62 -143 -115 -263 -53 -121 -92 -222 -88
-225 5 -3 100 -87 212 -186 111 -99 207 -179 214 -177 16 5 476 273 480 281 6
9 -113 544 -122 552 -4 3 -115 16 -247 28 -132 12 -257 25 -277 28 -37 5 -38
4 -57 -38z"/>





</g>
</svg>
