<?xml version="1.0" standalone="no"?>
<!DOCTYPE svg PUBLIC "-//W3C//DTD SVG 20010904//EN"
 "http://www.w3.org/TR/2001/REC-SVG-20010904/DTD/svg10.dtd">
<svg version="1.0" xmlns="http://www.w3.org/2000/svg"
 width="2400.000000pt" height="2400.000000pt" viewBox="0 0 2400.000000 2400.000000"
 preserveAspectRatio="xMidYMid meet">
<g transform="translate(0.000000,2400.000000) scale(0.100000,-0.100000)"
fill="#fff" stroke="none">




<path d="M1392 16564 c-187 -50 -333 -200 -371 -382 -16 -75 -16 -7009 0
-7084 39 -185 184 -333 375 -383 52 -13 1239 -15 10604 -15 9366 0 10552 2
10604 15 190 50 337 199 375 383 16 75 16 7009 0 7084 -19 92 -66 177 -138
249 -71 70 -138 109 -236 134 -53 13 -1169 15 -10610 14 -9098 0 -10557 -2
-10603 -15z m21188 -210 c41 -12 67 -29 111 -73 99 -99 89 305 89 -3641 0
-3946 10 -3542 -89 -3641 -44 -44 -70 -61 -111 -73 -49 -15 -991 -16 -10580
-16 -9589 0 -10531 1 -10580 16 -41 12 -67 29 -111 73 -99 99 -89 -305 -89
3641 0 3946 -10 3542 89 3641 42 42 71 62 107 73 43 13 1230 15 10580 15 9594
1 10535 0 10584 -15z"/>// box around logo
<path d="M16615 15764 c-33 -2 -145 -8 -250 -14 -919 -52 -1792 -221 -2770
-537 -333 -107 -553 -185 -1220 -428 -1186 -433 -1724 -587 -2345 -675 -563
-80 -1310 -75 -1825 11 -509 85 -852 225 -1081 441 -43 40 -68 59 -57 42 35
-49 152 -155 228 -205 304 -201 764 -326 1405 -385 275 -26 902 -26 1150 -1
731 74 1343 231 2495 640 1328 471 1777 611 2435 756 993 219 2084 291 3125
205 1446 -118 2508 -561 2675 -1115 94 -310 -119 -578 -559 -704 -179 -52
-456 -71 -648 -44 -482 66 -759 390 -557 654 30 39 134 112 206 143 114 50
214 67 383 67 180 -1 240 -13 361 -71 50 -23 87 -50 122 -89 92 -101 95 -203
9 -294 -29 -31 -30 -32 -6 -17 80 51 113 179 69 265 -46 91 -171 176 -320 218
-52 14 -102 18 -255 18 -224 0 -311 -17 -461 -90 -240 -116 -328 -305 -235
-502 39 -80 98 -143 194 -206 196 -128 427 -187 732 -187 547 1 1004 220 1126
541 13 35 23 88 26 149 5 87 2 103 -26 191 -49 151 -147 286 -299 411 -531
438 -1458 710 -2722 798 -150 11 -983 21 -1105 14z"/>// one of the whisps
<path d="M11449 15167 c-67 -19 -135 -63 -164 -105 -19 -28 -25 -49 -25 -91 0
-51 3 -57 43 -95 l43 -41 -23 -34 c-39 -58 -24 -156 32 -200 96 -75 308 -36
385 71 67 92 44 199 -53 253 -17 9 -17 12 -3 40 20 38 20 97 1 135 -33 63
-140 94 -236 67z m151 -357 c45 -45 4 -120 -66 -120 -45 0 -74 23 -74 60 0 66
94 106 140 60z"/>// the 8
<path d="M15370 15130 c-358 -20 -640 -53 -1110 -131 -659 -109 -1112 -212
-1600 -366 -187 -59 -423 -143 -417 -149 2 -2 77 21 168 52 543 182 1122 313
1949 438 854 130 1612 148 2560 60 294 -27 596 -89 760 -156 160 -65 280 -173
280 -252 0 -81 -98 -148 -225 -154 -191 -10 -405 104 -405 214 0 122 246 141
378 30 36 -31 44 -21 9 12 -66 62 -228 99 -325 73 -53 -15 -109 -63 -117 -101
-16 -71 62 -163 187 -219 196 -89 422 -75 537 34 40 38 45 47 49 97 5 70 -18
117 -91 185 -164 150 -513 249 -1042 297 -93 9 -235 21 -315 26 -193 14 -1035
21 -1230 10z"/>
<path d="M7457 14819 c-59 -155 -106 -283 -104 -285 2 -2 89 -42 193 -88 l189
-84 21 47 c42 92 47 83 -76 136 -60 27 -110 52 -110 57 0 5 6 24 14 43 l15 35
83 -36 c121 -53 112 -54 137 16 13 34 21 63 19 64 -1 1 -43 20 -91 41 -48 21
-90 42 -93 46 -9 15 25 81 38 76 7 -3 55 -24 107 -47 51 -22 95 -39 97 -37 12
12 51 123 46 128 -5 5 -319 146 -367 165 -6 3 -59 -122 -118 -277z"/>
<path d="M10833 14977 c-61 -18 -114 -35 -117 -38 -3 -3 -2 -21 3 -40 5 -19
12 -46 15 -61 6 -26 6 -26 50 -13 l44 13 52 -211 c29 -117 55 -214 56 -216 2
-2 38 4 79 14 53 13 75 24 75 34 0 28 -132 551 -138 550 -4 0 -57 -15 -119
-32z"/>
<path d="M10235 14851 c-142 -37 -211 -143 -203 -310 6 -109 34 -177 95 -231
58 -51 99 -64 187 -58 114 8 182 54 228 153 18 40 22 67 22 140 0 77 -4 99
-28 150 -32 70 -66 109 -120 137 -43 22 -134 32 -181 19z m117 -158 c42 -38
61 -181 33 -249 -19 -46 -73 -71 -113 -52 -89 42 -103 283 -19 318 29 12 76 4
99 -17z"/>
<path d="M8538 14699 c-144 -103 -157 -123 -83 -135 39 -5 44 -9 40 -28 -12
-52 -25 -155 -25 -196 0 -90 57 -140 185 -165 43 -8 79 -14 80 -12 1 1 7 31
12 67 12 73 11 75 -49 84 -53 9 -62 31 -45 126 l13 75 61 -3 60 -3 7 38 c12
78 12 79 -55 92 -42 9 -59 16 -56 25 3 7 8 38 12 69 7 51 5 57 -11 57 -11 0
-76 -41 -146 -91z"/>
<path d="M9476 14766 c-76 -29 -126 -96 -126 -170 l0 -45 33 5 c78 11 93 12
108 13 10 1 19 13 23 31 11 55 82 59 100 6 14 -37 -19 -98 -143 -271 -55 -77
-99 -147 -98 -155 2 -9 12 -14 27 -13 66 5 425 46 428 48 2 2 1 33 -3 70 l-7
66 -37 -5 c-20 -3 -58 -8 -84 -11 l-49 -6 42 60 c67 100 90 153 90 211 0 63
-27 115 -76 149 -44 31 -167 40 -228 17z"/>
<path d="M14195 14774 c-446 -15 -843 -56 -1146 -119 -128 -27 -329 -82 -339
-92 -3 -3 6 -3 20 1 444 120 799 163 1430 173 527 8 819 -10 1180 -73 542 -93
993 -292 1112 -488 25 -43 41 -58 67 -65 43 -13 88 -4 106 22 20 28 -1 65 -79
142 -238 235 -804 421 -1461 479 -166 15 -690 27 -890 20z"/>
<path d="M8034 14736 c-35 -15 -68 -57 -77 -98 -17 -68 25 -128 121 -174 70
-33 92 -52 92 -75 0 -42 -85 -29 -96 16 -6 25 -30 35 -138 61 l-29 7 5 -51 c6
-67 42 -113 114 -148 73 -36 182 -44 234 -17 48 25 80 76 80 127 0 66 -27 97
-129 150 -78 40 -92 51 -89 69 4 31 50 35 78 7 11 -11 19 -24 16 -29 -5 -7 60
-30 127 -45 26 -6 27 -4 27 29 0 65 -38 114 -119 155 -56 28 -172 37 -217 16z"/>
<path d="M4510 14610 c-347 -6 -381 -8 -455 -29 -204 -57 -367 -183 -436 -337
-95 -211 -51 -471 105 -628 158 -159 375 -176 523 -42 83 75 122 224 89 339
-28 98 -136 193 -239 212 l-38 7 22 -36 c40 -69 6 -160 -75 -197 -78 -35 -136
-19 -175 51 -19 34 -23 52 -19 103 5 83 41 137 108 166 48 21 62 21 438 19
l388 -3 -240 -487 c-133 -267 -250 -496 -261 -508 -25 -27 -76 -54 -134 -70
-38 -10 -42 -14 -36 -33 49 -153 45 -166 -251 -786 -135 -284 -269 -559 -297
-611 -192 -362 -377 -510 -638 -510 -217 0 -403 144 -479 369 -57 171 -25 323
92 438 85 83 219 113 299 67 47 -28 60 -58 57 -130 -4 -70 -38 -132 -89 -163
l-30 -18 49 -7 c210 -28 426 158 440 379 12 195 -94 327 -311 385 -190 52
-392 -13 -557 -179 -146 -147 -211 -312 -213 -541 -1 -147 14 -216 72 -335 69
-141 167 -237 316 -311 140 -69 222 -87 400 -87 292 -1 514 67 720 220 102 75
186 169 279 308 104 158 153 247 345 637 109 222 180 353 194 362 27 17 117
37 312 70 176 29 523 71 530 64 3 -3 -69 -157 -160 -342 -91 -186 -172 -365
-181 -399 -64 -246 83 -378 357 -323 179 37 458 141 714 266 183 91 205 105
206 132 0 13 9 -11 20 -52 36 -140 111 -231 243 -295 136 -66 292 -87 491 -66
331 36 637 155 891 346 l84 64 0 -44 c0 -153 75 -283 195 -336 40 -18 68 -23
140 -23 104 0 196 24 309 81 39 20 72 31 73 27 11 -34 47 -74 79 -90 56 -27
167 -25 264 5 144 44 390 171 587 303 56 37 104 68 106 68 2 0 4 -26 6 -57 4
-114 53 -223 125 -278 43 -33 142 -65 202 -65 79 0 197 30 293 76 51 24 95 44
97 44 2 0 10 -15 19 -34 26 -54 71 -71 190 -71 117 1 206 23 347 87 97 43 252
131 327 186 24 18 47 32 50 32 4 0 8 -21 9 -46 5 -133 137 -243 334 -280 114
-22 333 -15 441 14 180 49 332 154 388 267 19 41 24 65 24 130 -1 69 -5 90
-33 149 -34 72 -118 216 -163 279 -24 32 -26 43 -18 65 6 14 15 33 22 41 9 11
8 16 -7 25 -132 79 -170 134 -170 246 1 142 97 250 224 250 43 0 56 -5 86 -32
59 -55 64 -140 13 -240 -11 -22 -18 -43 -14 -46 4 -4 41 -7 83 -6 208 1 337
170 258 339 -109 234 -563 276 -834 76 -63 -47 -129 -142 -153 -223 -27 -87
-23 -210 10 -306 21 -61 21 -65 5 -117 -10 -30 -16 -56 -13 -58 2 -1 30 -14
61 -29 66 -31 77 -47 162 -218 80 -162 87 -254 25 -324 -40 -46 -99 -68 -180
-69 -81 0 -130 25 -159 84 -27 51 -27 133 0 176 21 35 81 83 130 103 16 7 30
16 30 21 0 14 -210 10 -266 -5 -28 -7 -74 -25 -103 -40 -29 -14 -55 -25 -59
-23 -4 1 -35 -15 -69 -36 -88 -54 -315 -162 -397 -188 -63 -21 -71 -21 -95 -8
-47 27 -36 64 104 352 43 90 52 101 108 139 34 23 63 42 65 43 1 1 -6 21 -17
45 l-19 43 354 709 355 709 -33 -6 c-18 -4 -148 -30 -288 -58 l-254 -52 -38
-65 c-21 -36 -38 -68 -38 -72 0 -5 25 -8 55 -8 30 0 55 -5 55 -10 0 -6 -59
-127 -130 -271 l-131 -260 -33 29 c-66 58 -121 77 -226 77 -111 0 -198 -23
-325 -87 -215 -108 -379 -260 -559 -521 -60 -85 -127 -154 -183 -186 -13 -7
-13 -12 2 -41 20 -39 17 -74 -18 -200 -22 -81 -26 -86 -71 -117 -165 -109
-426 -223 -510 -223 -93 0 -89 39 28 276 51 104 104 199 117 210 13 12 45 34
72 49 26 15 47 28 47 30 0 1 -7 16 -15 31 -8 16 -15 39 -15 51 0 13 72 171
159 353 l159 330 -182 0 -182 0 -17 -35 -17 -35 -36 25 c-83 56 -236 78 -364
51 -97 -20 -255 -98 -362 -179 -114 -86 -251 -226 -328 -336 -36 -51 -77 -111
-93 -132 -24 -34 -80 -82 -127 -109 -12 -7 -13 -13 -4 -27 26 -42 26 -81 0
-163 -14 -44 -29 -98 -32 -120 -4 -22 -11 -37 -16 -34 -5 3 -52 -24 -106 -59
-249 -166 -515 -257 -756 -257 -58 0 -129 5 -158 11 -174 37 -286 164 -276
315 l3 48 105 17 c199 31 404 92 593 175 264 115 416 270 463 471 44 190 -58
346 -256 393 -83 20 -231 16 -326 -9 -305 -79 -595 -301 -813 -624 -34 -51
-66 -84 -105 -110 l-56 -37 15 -30 c20 -39 19 -57 -9 -142 -14 -40 -27 -93
-31 -118 l-7 -45 -111 -52 c-184 -85 -491 -183 -573 -183 -51 0 -78 31 -71 84
4 40 173 421 264 598 36 71 61 103 130 168 46 44 95 83 108 86 l23 6 -19 43
c-10 24 -20 68 -20 98 -2 53 10 77 374 801 207 410 372 746 367 746 -8 0 -670
-134 -715 -144 -12 -3 -40 -40 -72 -95 -29 -50 -53 -93 -53 -95 0 -3 35 -6 79
-8 l78 -3 -73 -150 c-338 -690 -454 -929 -454 -936 0 -5 -179 -9 -400 -9 -220
0 -400 2 -400 5 0 3 38 82 84 177 160 331 618 1273 627 1291 9 16 -6 17 -268
15 -153 -1 -447 -5 -653 -8z m6415 -1501 c132 -36 164 -220 57 -327 -62 -62
-123 -87 -217 -86 -44 0 -97 6 -118 13 -21 7 -41 10 -44 7 -17 -16 86 -142
143 -174 18 -10 9 -31 -123 -295 l-142 -284 -45 -12 c-143 -36 -222 15 -245
157 -10 64 -3 168 19 267 10 44 17 55 66 90 31 22 58 43 60 47 3 4 -5 26 -17
49 -26 53 -22 107 14 181 80 161 271 316 447 362 68 18 94 19 145 5z m-1725
-25 c52 -30 73 -66 78 -133 7 -100 -41 -173 -148 -227 -46 -24 -68 -28 -130
-28 -41 0 -92 6 -113 13 -21 7 -41 10 -45 6 -3 -3 4 -26 17 -51 23 -43 71 -92
120 -124 l23 -16 -139 -279 c-155 -310 -149 -303 -256 -304 -100 -2 -155 54
-177 179 -13 72 -9 118 22 233 20 76 22 80 74 114 30 20 54 39 54 43 0 4 -9
29 -21 55 -27 61 -20 110 28 207 67 136 225 268 383 320 71 23 183 20 230 -8z
m-1760 -40 c79 -32 96 -128 41 -239 -75 -151 -223 -262 -482 -358 -108 -41
-289 -90 -298 -82 -11 12 21 104 69 200 113 225 336 431 520 481 63 17 103 17
150 -2z"/>
<path d="M8940 14195 l0 -75 85 0 85 0 0 75 0 75 -85 0 -85 0 0 -75z"/>
<path d="M14124 13942 l-282 -55 -36 -67 c-20 -37 -36 -70 -36 -74 0 -3 25 -6
55 -6 30 0 55 -3 54 -7 0 -5 -53 -112 -117 -240 l-117 -231 -67 -1 c-148 0
-129 9 -176 -86 -48 -97 -52 -88 61 -124 37 -13 67 -24 67 -26 0 -2 -47 -95
-105 -207 -106 -203 -135 -244 -219 -303 -28 -20 -29 -21 -12 -52 9 -18 16
-41 16 -52 0 -11 -52 -126 -117 -255 -132 -265 -142 -305 -105 -389 60 -136
241 -142 572 -19 255 95 576 249 718 344 23 16 42 26 42 22 0 -4 -47 -99 -105
-210 -58 -112 -105 -206 -105 -209 0 -3 89 -5 198 -5 l197 0 33 63 c19 34 92
175 164 312 168 322 178 337 254 391 l63 45 -19 32 c-27 43 -25 63 11 154 61
155 176 302 278 354 58 30 152 38 185 16 51 -34 41 -118 -23 -204 -20 -26 -54
-59 -75 -73 l-39 -25 64 -13 c123 -24 257 5 337 73 24 21 54 63 73 101 27 54
32 77 33 137 1 90 -20 129 -89 172 -47 29 -52 30 -169 30 -110 -1 -129 -4
-211 -32 -49 -18 -91 -30 -93 -28 -2 2 4 17 13 35 9 18 14 34 12 37 -4 3 -448
-81 -545 -104 -15 -3 -36 -29 -62 -73 -22 -38 -40 -71 -40 -74 0 -3 25 -6 55
-6 30 0 55 -5 55 -10 0 -22 -174 -358 -206 -396 -18 -23 -54 -55 -79 -70 -48
-30 -48 -31 -24 -92 13 -31 11 -38 -51 -163 -67 -135 -90 -170 -65 -99 8 22
12 40 10 40 -2 0 -93 -45 -202 -100 -181 -92 -360 -168 -503 -216 -77 -26
-200 -26 -229 0 -12 11 -21 29 -21 41 0 27 113 258 181 372 47 77 78 111 144
159 l29 22 -18 40 c-22 48 -23 44 43 191 57 128 123 235 159 259 13 8 83 27
155 41 l131 26 59 98 c33 53 57 100 54 103 -3 3 -66 5 -141 5 -75 -1 -136 2
-136 6 0 4 80 168 178 363 207 415 186 370 175 369 -4 0 -135 -26 -289 -57z"/>
<path d="M2191 13938 c-10 -24 -62 -142 -115 -263 -80 -180 -95 -221 -83 -230
7 -5 103 -89 212 -185 109 -96 203 -174 209 -172 17 5 459 263 473 276 9 8 -3
76 -48 280 -33 149 -62 272 -65 275 -2 3 -105 15 -227 27 -122 12 -248 25
-280 29 l-57 6 -19 -43z"/>
<path d="M16763 13281 c-265 -72 -560 -291 -751 -560 -26 -36 -80 -99 -121
-139 -72 -71 -73 -73 -61 -102 14 -34 10 -67 -20 -165 -67 -219 -33 -424 88
-537 70 -66 143 -91 262 -91 117 1 216 26 344 86 266 126 458 314 660 645 l67
109 87 21 c169 42 369 161 522 312 l90 88 -77 -151 c-78 -151 -120 -207 -201
-267 -33 -25 -33 -25 -18 -55 9 -16 16 -41 16 -54 0 -13 -81 -183 -180 -378
l-180 -353 199 0 199 0 177 348 c98 191 189 360 204 375 14 16 45 42 69 58 47
33 49 41 25 90 -17 33 -16 34 21 104 131 240 253 347 430 375 74 12 101 8 110
-16 3 -9 -36 -97 -91 -205 -98 -192 -113 -212 -213 -289 -33 -25 -33 -26 -16
-57 9 -18 16 -41 16 -52 0 -11 -50 -121 -111 -246 -119 -243 -136 -299 -110
-378 26 -79 117 -124 228 -114 128 12 416 144 639 292 l120 81 11 -81 c22
-160 94 -250 237 -299 16 -5 3 -17 -65 -57 -183 -109 -299 -217 -364 -341 -65
-122 -54 -193 38 -255 64 -43 138 -57 272 -51 88 4 129 12 205 37 161 54 317
155 436 284 76 82 112 139 219 348 l89 175 56 23 c112 45 557 209 626 231 69
22 72 25 78 59 6 39 8 91 3 91 -2 0 -151 -49 -332 -110 -180 -60 -330 -110
-332 -110 -2 0 42 91 99 202 l102 201 68 50 c37 27 68 52 68 56 -1 3 -7 17
-15 31 -8 14 -14 34 -15 45 0 18 149 321 276 561 30 56 54 104 54 108 0 3 -89
6 -198 6 l-198 0 -17 -36 -17 -36 -37 33 c-64 56 -116 73 -218 73 -109 0 -189
-20 -310 -78 -172 -83 -341 -226 -495 -421 -47 -59 -103 -130 -125 -158 -23
-29 -64 -70 -92 -92 -40 -30 -51 -45 -47 -60 17 -68 15 -99 -12 -196 l-28
-102 -61 -39 c-33 -22 -126 -72 -206 -112 -201 -100 -319 -123 -319 -61 0 14
45 115 100 224 101 201 129 240 207 286 l31 18 -20 44 -19 43 111 223 c115
231 132 283 120 363 -14 93 -102 132 -269 119 -105 -8 -285 -53 -375 -94 -36
-16 -66 -28 -66 -25 0 3 9 23 20 44 11 22 17 40 14 40 -10 0 -526 -100 -544
-105 -8 -3 -33 -39 -55 -80 -35 -66 -43 -75 -69 -75 -19 0 -46 -15 -85 -48
-135 -117 -272 -199 -368 -220 -50 -11 -49 -15 -33 103 25 188 -60 364 -209
434 -48 22 -71 26 -166 28 -83 2 -128 -2 -182 -16z m127 -186 c5 -3 17 -20 26
-38 22 -42 14 -157 -18 -254 l-23 -72 -53 18 c-111 38 -170 138 -142 240 26
98 134 153 210 106z m3544 -18 c98 -65 82 -262 -27 -335 -100 -66 -170 -74
-321 -36 l-28 7 22 -44 c13 -24 49 -70 81 -102 33 -32 59 -61 59 -63 0 -3 -63
-128 -141 -278 l-141 -274 -44 -12 c-58 -17 -134 -8 -172 18 -52 37 -72 94
-72 203 0 52 5 114 11 139 26 115 27 117 88 160 l59 42 -25 54 c-23 50 -24 59
-13 102 42 166 238 361 427 423 72 24 198 21 237 -4z m-3907 -345 c56 -81 134
-139 236 -171 20 -7 37 -17 37 -23 0 -17 -133 -237 -186 -308 -27 -36 -87
-104 -133 -153 -134 -139 -242 -180 -289 -109 -37 57 -12 252 54 416 20 50 33
67 74 95 28 19 50 37 50 41 0 4 -9 29 -21 55 -18 41 -19 53 -9 92 13 55 47
123 91 182 l32 45 14 -55 c7 -29 30 -78 50 -107z m3263 -1086 c0 -15 -115
-241 -146 -287 -71 -105 -179 -199 -229 -199 -39 0 -65 28 -65 69 0 116 153
285 347 382 74 37 93 44 93 35z"/>
<path d="M13782 11281 c-106 -37 -158 -119 -156 -251 1 -124 47 -195 213 -330
50 -40 102 -90 117 -111 28 -40 41 -109 30 -153 -9 -36 -59 -60 -110 -53 -58
8 -76 34 -76 113 l0 64 -90 0 -90 0 0 -58 c0 -166 86 -258 251 -270 81 -6 153
11 212 48 58 37 89 99 95 194 8 134 -46 221 -228 366 -67 54 -95 83 -114 122
-52 103 -20 188 69 188 62 0 95 -39 95 -110 l0 -40 91 0 92 0 -7 61 c-8 79
-34 136 -79 176 -70 61 -209 81 -315 44z"/>
<path d="M18145 11291 c-89 -25 -145 -70 -172 -139 -16 -42 -18 -83 -18 -387
0 -383 1 -392 69 -460 31 -30 57 -46 102 -58 127 -36 259 -12 330 58 68 68 69
77 69 460 0 304 -2 345 -18 387 -20 52 -68 100 -125 124 -42 18 -191 28 -237
15z m166 -170 l29 -29 0 -327 0 -327 -29 -29 c-23 -23 -38 -29 -71 -29 -33 0
-48 6 -71 29 l-29 29 0 327 0 327 29 29 c23 23 38 29 71 29 33 0 48 -6 71 -29z"/>
<path d="M20521 11259 c-10 -24 -62 -143 -115 -263 -53 -121 -92 -222 -88
-225 5 -3 100 -87 212 -186 111 -99 207 -179 214 -177 16 5 476 273 480 281 6
9 -113 544 -122 552 -4 3 -115 16 -247 28 -132 12 -257 25 -277 28 -37 5 -38
4 -57 -38z"/>
<path d="M4090 10765 l0 -525 95 0 95 0 0 225 0 225 105 0 105 0 0 -225 0
-225 95 0 95 0 0 525 0 525 -95 0 -95 0 0 -225 0 -225 -105 0 -105 0 0 225 0
225 -95 0 -95 0 0 -525z"/>
<path d="M5240 11287 c0 -5 -180 -992 -186 -1020 l-6 -28 89 3 88 3 14 93 14
92 117 0 117 0 12 -81 c7 -44 15 -87 18 -95 4 -11 27 -14 100 -14 85 0 94 2
89 18 -6 22 -186 1008 -186 1022 0 6 -51 10 -140 10 -77 0 -140 -1 -140 -3z
m174 -442 c21 -126 40 -240 43 -252 5 -23 3 -23 -87 -23 l-92 0 5 28 c3 15 22
131 44 259 21 127 41 229 44 225 3 -4 23 -110 43 -237z"/>
<path d="M6070 10765 l0 -525 95 0 95 0 0 525 0 525 -95 0 -95 0 0 -525z"/>
<path d="M6670 10765 l0 -525 95 0 95 0 0 215 0 215 50 0 c113 0 130 -28 131
-222 1 -79 4 -156 8 -173 l6 -30 98 -3 c79 -2 97 0 90 10 -4 7 -10 94 -13 193
-6 205 -16 237 -82 285 l-38 28 34 20 c19 12 45 40 58 64 20 38 23 57 23 163
0 143 -18 197 -82 239 -57 37 -110 45 -300 46 l-173 0 0 -525z m318 369 c38
-11 52 -53 52 -158 0 -85 -2 -98 -24 -122 -20 -24 -32 -28 -90 -32 l-66 -4 0
161 0 161 53 0 c28 0 62 -3 75 -6z"/>
<path d="M8338 11276 c-61 -16 -113 -57 -140 -109 -19 -35 -22 -59 -23 -142 0
-117 16 -161 76 -205 l38 -27 -44 -36 c-59 -50 -75 -101 -75 -238 0 -118 16
-186 54 -228 70 -78 229 -81 296 -5 l28 33 9 -37 9 -37 98 -3 c92 -3 98 -2 90
15 -5 10 -10 116 -12 236 l-3 217 25 0 c26 0 26 1 26 75 0 73 -1 75 -25 75
-24 0 -25 3 -25 60 l0 60 -95 0 -95 0 0 -61 0 -61 -71 4 c-63 3 -74 7 -95 31
-21 25 -24 38 -24 111 0 127 5 130 168 134 147 4 137 -3 141 95 l2 57 -143 -1
c-81 0 -163 -6 -190 -13z m212 -700 c0 -74 -3 -142 -6 -151 -8 -21 -56 -45
-89 -45 -38 0 -82 26 -89 52 -10 41 -6 196 6 224 16 35 59 53 126 54 l52 0 0
-134z"/>
<path d="M9690 10765 l0 -525 85 0 85 0 2 377 3 376 89 -304 c50 -167 99 -335
111 -374 l22 -70 96 -3 97 -3 0 526 0 525 -85 0 -85 0 -2 -307 -3 -307 -90
307 -89 307 -118 0 -118 0 0 -525z"/>
<path d="M10826 11263 c-3 -16 -44 -239 -91 -498 -47 -258 -88 -483 -91 -498
l-6 -28 89 3 88 3 14 93 14 92 117 0 117 0 12 -81 c7 -44 15 -87 18 -95 4 -11
27 -14 100 -14 85 0 94 2 89 18 -7 22 -186 1007 -186 1021 0 7 -47 11 -139 11
l-139 0 -6 -27z m178 -418 c21 -126 40 -240 43 -252 5 -23 3 -23 -87 -23 l-92
0 5 28 c3 15 23 131 44 259 21 127 41 229 44 225 3 -4 23 -110 43 -237z"/>
<path d="M11660 10765 l0 -525 95 0 95 0 0 525 0 525 -95 0 -95 0 0 -525z"/>
<path d="M12260 10765 l0 -525 250 0 250 0 0 75 0 75 -155 0 -155 0 0 450 0
450 -95 0 -95 0 0 -525z"/>
<path d="M14500 11215 l0 -75 100 0 100 0 0 -450 0 -450 95 0 95 0 0 450 0
450 95 0 95 0 0 75 0 75 -290 0 -290 0 0 -75z"/>
<path d="M15430 10867 c0 -450 3 -481 49 -546 12 -16 47 -42 79 -58 50 -25 68
-28 152 -28 109 0 169 21 220 77 57 62 60 89 60 555 l0 423 -90 0 -90 0 0
-429 c0 -407 -1 -430 -19 -452 -16 -20 -28 -24 -76 -24 -48 0 -60 4 -76 24
-18 22 -19 45 -19 452 l0 429 -95 0 -95 0 0 -423z"/>
<path d="M16400 10765 l0 -527 198 4 c192 3 199 4 253 31 65 31 103 79 118
147 14 59 14 611 1 681 -14 75 -51 123 -119 156 -54 27 -61 28 -253 31 l-198
4 0 -527z m343 364 c44 -20 47 -42 47 -364 0 -202 -4 -312 -11 -328 -16 -34
-49 -47 -124 -47 l-65 0 0 375 0 375 65 0 c35 0 75 -5 88 -11z"/>
<path d="M17370 10765 l0 -525 95 0 95 0 0 525 0 525 -95 0 -95 0 0 -525z"/>
<path d="M3290 9705 l0 -125 8415 0 8415 0 0 125 0 125 -8415 0 -8415 0 0
-125z"/>
</g>
</svg>
