<?xml version="1.0" standalone="no"?>
<!DOCTYPE svg PUBLIC "-//W3C//DTD SVG 20010904//EN"
 "http://www.w3.org/TR/2001/REC-SVG-20010904/DTD/svg10.dtd">
<svg version="1.0" xmlns="http://www.w3.org/2000/svg"
 width="2400.000000pt" height="2400.000000pt" viewBox="0 0 2400.000000 2400.000000"
 preserveAspectRatio="xMidYMid meet">

<g transform="translate(0.000000,2400.000000) scale(0.100000,-0.100000)"
fill="#fff" stroke="none">
<path d="M1610 17234 c-182 -48 -332 -204 -369 -382 -8 -38 -11 -1041 -11
-3545 0 -3103 2 -3499 15 -3552 25 -98 64 -165 134 -236 71 -71 139 -109 236
-134 54 -13 1175 -15 10630 -13 l10570 3 59 23 c165 62 277 187 321 357 13 53
15 449 15 3555 0 3106 -2 3502 -15 3555 -44 170 -156 295 -321 357 l-59 23
-10575 2 c-9252 1 -10582 0 -10630 -13z m21190 -210 c41 -12 67 -29 111 -73
99 -99 89 305 89 -3641 0 -3946 10 -3542 -89 -3641 -44 -44 -70 -61 -111 -73
-49 -15 -991 -16 -10580 -16 -9589 0 -10531 1 -10580 16 -41 12 -67 29 -111
73 -99 99 -89 -305 -89 3641 0 3946 -10 3542 89 3641 42 42 71 62 107 73 43
13 1230 15 10580 15 9594 1 10535 0 10584 -15z"/>
<path d="M16725 16429 c-1261 -62 -2250 -286 -3855 -874 -263 -96 -341 -125
-580 -212 -244 -89 -877 -300 -1030 -342 -503 -141 -901 -219 -1316 -256 -202
-19 -696 -26 -919 -15 -803 42 -1367 209 -1676 496 -56 52 -67 60 -45 31 64
-87 187 -182 339 -262 431 -227 1167 -349 2002 -332 874 19 1592 184 3025 697
823 294 1099 387 1565 522 1001 290 1818 415 2860 434 1602 31 2967 -296 3510
-841 157 -157 221 -300 213 -477 -4 -75 -9 -96 -41 -162 -106 -214 -402 -374
-771 -417 -123 -14 -405 -6 -496 15 -248 57 -442 180 -511 321 -36 76 -39 177
-6 249 83 181 370 299 686 283 196 -10 340 -64 430 -162 46 -51 71 -106 71
-159 0 -35 -25 -94 -53 -125 l-22 -25 25 16 c38 24 70 93 70 153 0 136 -129
252 -345 311 -57 16 -104 19 -260 19 -222 0 -296 -15 -451 -90 -113 -54 -189
-122 -234 -207 -30 -56 -34 -72 -34 -143 0 -67 4 -90 27 -139 83 -180 293
-312 599 -377 135 -29 414 -36 574 -15 465 61 800 268 889 549 68 213 -7 439
-214 647 -423 425 -1320 736 -2451 850 -406 41 -1163 60 -1575 39z"/>
<path d="M11670 15834 c-71 -19 -133 -56 -162 -97 -18 -25 -23 -45 -23 -94 0
-55 3 -65 29 -92 17 -17 36 -31 43 -31 18 0 16 -6 -7 -38 -49 -66 -30 -172 39
-218 98 -65 269 -30 364 75 42 46 56 109 37 165 -12 37 -61 86 -86 86 -18 0
-17 18 1 50 44 76 -10 177 -105 199 -57 13 -63 13 -130 -5z m78 -120 c39 -27
24 -84 -28 -103 -80 -27 -126 64 -52 104 35 19 53 18 80 -1z m72 -234 c48 -48
6 -120 -71 -120 -47 0 -69 21 -69 66 0 28 6 38 33 54 41 25 82 25 107 0z"/>
<path d="M15580 15799 c-404 -21 -926 -91 -1525 -204 -540 -101 -1114 -256
-1523 -410 -128 -48 -71 -36 99 21 551 185 1166 322 2014 448 805 120 1568
135 2487 51 539 -50 908 -169 1016 -329 57 -86 36 -153 -65 -202 -151 -74
-413 -13 -510 118 -46 63 -18 132 65 159 78 26 219 -6 290 -65 36 -31 44 -21
9 12 -72 68 -249 103 -342 68 -47 -18 -91 -62 -101 -101 -16 -64 67 -160 188
-214 195 -89 422 -74 537 34 40 38 45 47 49 97 6 72 -14 113 -87 181 -99 91
-224 148 -456 207 -256 65 -597 105 -1105 130 -245 11 -810 11 -1040 -1z"/>
<path d="M7680 15494 c-58 -152 -106 -279 -108 -282 -3 -9 353 -167 375 -167
9 0 25 24 39 59 13 33 23 60 21 62 -1 1 -50 23 -109 49 -61 26 -108 53 -108
61 0 11 18 61 27 73 1 2 46 -15 98 -39 52 -24 97 -41 98 -39 11 14 46 112 42
118 -2 4 -44 25 -92 46 -48 21 -90 40 -92 42 -7 5 22 83 31 83 4 0 54 -21 109
-46 72 -32 104 -42 109 -34 13 20 44 119 39 123 -3 3 -327 148 -364 163 -5 2
-57 -120 -115 -272z"/>
<path d="M11052 15645 c-62 -18 -115 -34 -117 -37 -5 -5 21 -107 29 -116 3 -3
23 0 43 6 22 7 39 8 43 2 3 -5 28 -101 55 -214 26 -114 53 -206 59 -206 18 0
131 33 140 41 8 7 -123 560 -133 558 -3 -1 -57 -16 -119 -34z"/>
<path d="M10457 15519 c-128 -30 -196 -117 -205 -261 -7 -112 23 -204 86 -267
58 -58 114 -76 208 -68 125 10 211 93 234 225 29 172 -49 327 -184 367 -55 17
-83 17 -139 4z m113 -157 c33 -34 50 -87 50 -162 0 -129 -94 -192 -164 -109
-33 39 -51 145 -36 211 21 86 94 115 150 60z"/>
<path d="M8760 15370 c-143 -102 -156 -124 -85 -135 42 -6 46 -9 41 -28 -15
-62 -28 -199 -22 -231 14 -73 83 -117 207 -132 l57 -7 9 64 c9 70 11 68 -59
83 -42 9 -50 34 -38 118 15 103 10 97 75 86 31 -6 58 -8 60 -6 3 2 7 29 11 60
l6 56 -43 7 c-76 11 -81 14 -75 43 18 97 18 112 -1 112 -10 0 -74 -41 -143
-90z"/>
<path d="M9695 15434 c-75 -27 -125 -95 -125 -169 0 -39 5 -41 107 -29 46 6
52 9 55 33 2 15 14 31 29 40 24 13 29 13 54 -3 54 -36 27 -92 -191 -400 -24
-34 -32 -52 -24 -60 7 -7 78 -3 230 14 l220 23 -6 66 c-4 36 -7 67 -8 68 -1 1
-37 -3 -80 -8 -43 -5 -80 -8 -82 -6 -2 1 13 25 32 53 128 176 124 313 -11 375
-48 22 -143 24 -200 3z"/>
<path d="M14410 15443 c-396 -10 -830 -55 -1120 -114 -119 -24 -332 -80 -326
-86 2 -2 48 7 102 21 442 110 921 153 1599 143 554 -9 866 -46 1246 -151 342
-94 651 -252 738 -378 72 -103 97 -119 161 -97 48 17 54 39 21 90 -113 177
-467 353 -921 458 -413 96 -874 131 -1500 114z"/>
<path d="M8273 15414 c-61 -14 -110 -102 -92 -167 13 -47 38 -70 129 -118 66
-34 80 -45 80 -65 0 -17 -7 -25 -25 -30 -31 -8 -75 19 -75 45 0 14 -17 23 -74
39 -41 12 -77 22 -80 22 -3 0 -6 -16 -6 -35 0 -108 113 -190 260 -190 86 0
118 15 150 68 52 84 11 162 -119 226 -56 27 -77 43 -79 59 -7 44 70 41 90 -3
8 -18 26 -29 67 -40 31 -9 64 -18 74 -21 14 -4 17 1 17 26 0 70 -48 129 -134
165 -39 16 -145 27 -183 19z"/>
<path d="M4820 15280 c-500 -6 -525 -9 -679 -81 -220 -102 -338 -271 -349
-499 -12 -270 152 -496 391 -540 105 -20 232 22 299 99 76 87 106 220 73 326
-33 103 -134 190 -247 212 -33 6 -33 6 -14 -15 10 -12 21 -42 23 -67 5 -37 1
-52 -21 -85 -29 -44 -90 -80 -136 -80 -147 0 -181 239 -47 328 l41 27 408 3
408 3 -77 -158 c-43 -87 -151 -306 -241 -488 -185 -372 -198 -390 -301 -419
-33 -9 -61 -18 -61 -20 0 -1 7 -24 16 -50 20 -58 14 -144 -14 -226 -34 -96
-535 -1131 -602 -1243 -172 -289 -342 -408 -580 -408 -190 1 -354 105 -443
283 -68 136 -83 245 -47 360 47 152 166 252 300 252 73 1 113 -15 144 -57 27
-36 25 -119 -3 -175 -20 -39 -72 -91 -94 -93 -7 -1 11 -5 38 -10 65 -11 171
11 233 47 70 41 135 112 173 189 31 65 34 77 34 165 0 88 -3 101 -33 163 -39
78 -101 132 -200 172 -151 61 -302 53 -460 -25 -241 -120 -385 -374 -384 -680
1 -215 58 -357 202 -500 92 -93 168 -139 300 -184 241 -80 602 -43 860 90 281
144 433 349 770 1040 82 167 158 317 170 334 27 37 69 50 295 89 194 33 561
78 570 69 3 -3 -66 -152 -154 -331 -87 -179 -167 -350 -177 -379 -27 -77 -26
-200 2 -253 47 -89 153 -128 298 -107 171 25 492 140 761 274 208 104 205 101
206 156 1 45 2 44 10 -16 12 -93 35 -155 83 -219 77 -105 202 -171 378 -200
87 -14 120 -15 238 -5 357 29 693 157 955 363 l62 49 6 -74 c13 -147 75 -249
184 -302 47 -23 67 -27 142 -27 103 0 187 21 300 74 46 21 85 39 87 39 2 0 10
-15 18 -34 35 -84 184 -106 341 -52 166 59 365 162 561 292 61 41 113 74 116
74 3 0 8 -36 11 -80 21 -265 225 -378 517 -284 41 13 103 39 137 58 61 33 63
33 69 12 13 -42 55 -75 113 -87 163 -34 434 56 704 234 121 79 117 78 117 25
0 -133 128 -243 329 -284 116 -23 334 -15 441 16 249 72 398 200 417 360 12
106 -33 211 -210 480 -15 23 -15 28 2 65 l17 40 -57 37 c-75 49 -106 91 -121
162 -30 154 76 306 215 306 63 0 102 -24 128 -78 25 -52 20 -111 -16 -184 -29
-58 -24 -63 70 -62 116 1 202 51 249 146 105 211 -134 414 -464 395 -395 -23
-626 -319 -510 -654 21 -60 21 -64 5 -119 -9 -31 -15 -57 -13 -58 2 -1 24 -10
50 -20 62 -23 89 -57 167 -213 57 -113 65 -136 69 -199 4 -61 1 -78 -17 -110
-30 -52 -58 -71 -132 -90 -78 -20 -135 -12 -188 26 -32 24 -44 41 -56 84 -28
96 8 169 112 228 29 16 50 34 47 39 -9 15 -185 10 -247 -6 -32 -8 -80 -26
-108 -41 -28 -14 -53 -23 -56 -20 -3 2 -32 -13 -65 -35 -118 -76 -377 -192
-456 -205 -44 -7 -72 12 -72 49 0 22 144 346 174 391 8 14 42 41 74 62 l59 38
-18 46 -17 46 349 699 c192 384 348 701 347 705 -2 3 -129 -19 -283 -50 l-279
-55 -37 -65 c-21 -36 -38 -68 -38 -72 -1 -5 24 -8 54 -8 30 0 55 -5 55 -10 0
-6 -58 -127 -130 -270 l-130 -260 -51 39 c-127 96 -299 90 -524 -18 -199 -95
-376 -255 -541 -486 -74 -104 -115 -152 -160 -186 l-60 -45 14 -34 c16 -40 12
-84 -20 -202 l-23 -87 -79 -47 c-269 -160 -487 -239 -534 -192 -30 30 -19 62
101 308 l76 156 69 44 69 44 -19 43 -19 43 161 333 c88 182 160 335 160 340 0
4 -78 7 -174 7 l-174 0 -21 -35 -21 -36 -27 21 c-56 41 -142 63 -243 64 -121
1 -181 -14 -305 -75 -204 -99 -401 -278 -549 -498 -63 -93 -104 -138 -170
-186 -27 -19 -27 -21 -12 -50 21 -40 20 -56 -8 -147 -13 -42 -27 -95 -31 -117
-4 -23 -11 -39 -16 -35 -5 3 -56 -26 -113 -65 -454 -303 -1002 -342 -1149 -82
-25 43 -31 69 -35 131 l-4 77 88 11 c175 23 432 97 619 179 140 61 232 122
311 206 228 242 207 538 -45 639 -49 20 -74 22 -206 22 -138 0 -157 -2 -235
-28 -292 -97 -552 -305 -749 -598 -36 -54 -69 -90 -111 -119 -59 -42 -59 -42
-44 -70 19 -38 18 -63 -10 -144 -13 -38 -26 -91 -30 -116 l-7 -47 -80 -36
c-216 -99 -471 -184 -579 -193 -57 -5 -67 -3 -84 16 -32 35 -16 90 94 331 166
364 183 395 267 481 41 42 89 85 108 95 40 21 40 20 21 65 -8 19 -17 57 -21
85 l-6 51 281 559 c155 307 327 646 382 752 55 105 96 192 91 192 -16 0 -736
-149 -738 -153 -9 -12 -105 -179 -105 -182 0 -2 35 -5 79 -7 l79 -3 -267 -547
-266 -547 -397 -1 c-219 0 -398 3 -398 7 0 4 66 142 147 308 80 165 190 390
243 500 54 110 150 307 213 438 l116 237 -197 -2 c-108 -1 -397 -5 -642 -8z
m6367 -1515 c53 -31 78 -81 78 -154 0 -86 -34 -147 -109 -196 -71 -48 -145
-63 -234 -47 -38 6 -76 14 -85 18 -10 3 -17 2 -17 -3 0 -24 64 -106 109 -140
27 -21 50 -42 50 -48 0 -5 -62 -134 -138 -285 -155 -307 -147 -298 -262 -299
-71 -1 -113 25 -148 94 -22 43 -26 61 -25 145 0 53 8 129 17 171 18 76 18 77
77 118 33 23 60 44 60 47 0 3 -9 22 -20 44 -29 58 -26 106 15 186 101 202 368
382 547 370 31 -2 69 -12 85 -21z m-1777 -7 c63 -32 90 -77 90 -147 0 -169
-177 -283 -370 -238 -36 9 -67 13 -70 11 -2 -3 7 -25 20 -50 24 -45 55 -77
114 -120 l28 -20 -135 -277 c-151 -308 -142 -297 -252 -304 -83 -6 -122 16
-157 85 -38 74 -45 149 -25 247 30 144 33 151 90 191 29 21 54 39 56 41 3 2
-5 24 -17 48 -27 56 -28 90 -3 159 50 144 203 295 366 363 67 28 79 30 155 32
50 1 77 -4 110 -21z m-1744 -43 c47 -19 79 -88 69 -148 -12 -71 -64 -157 -145
-238 -68 -67 -92 -84 -211 -142 -128 -62 -253 -108 -385 -142 -85 -21 -84 -21
-73 23 19 72 43 128 91 211 170 298 484 507 654 436z"/>
<path d="M9160 14865 l0 -75 85 0 85 0 0 75 0 75 -85 0 -85 0 0 -75z"/>
<path d="M14345 14611 l-279 -56 -38 -65 c-21 -36 -38 -68 -38 -72 0 -5 25 -8
55 -8 30 0 55 -2 55 -5 0 -2 -53 -110 -117 -239 l-116 -235 -101 -3 -101 -3
-42 -80 c-23 -44 -39 -83 -35 -86 4 -4 36 -16 72 -28 36 -12 71 -25 78 -29 9
-7 -14 -60 -93 -214 -106 -207 -128 -237 -219 -303 l-27 -20 22 -44 21 -45
-122 -245 c-139 -280 -149 -316 -110 -396 58 -120 198 -136 460 -53 223 71
653 266 808 367 34 23 65 41 67 41 3 0 -13 -33 -34 -72 -116 -220 -181 -347
-181 -352 0 -3 89 -6 198 -6 l197 0 40 78 c22 42 77 147 122 232 45 85 110
209 145 274 51 97 73 128 115 162 28 23 59 47 69 52 17 10 17 12 -1 52 -16 37
-17 47 -6 88 19 73 84 200 139 272 85 111 181 170 277 170 98 0 130 -64 81
-164 -25 -50 -95 -127 -127 -138 -49 -18 110 -39 200 -27 128 18 220 86 260
194 30 79 32 180 5 226 -23 40 -72 75 -123 89 -86 24 -260 3 -375 -45 -21 -9
-40 -14 -43 -12 -2 3 3 19 12 37 9 18 15 34 12 36 -2 2 -129 -21 -283 -51
-153 -30 -280 -55 -281 -55 -2 0 -83 -141 -83 -146 0 -2 27 -4 60 -4 l61 0
-100 -198 c-102 -201 -124 -232 -215 -297 -28 -20 -29 -21 -12 -52 9 -18 16
-41 16 -52 0 -11 -32 -80 -71 -153 -39 -73 -68 -124 -64 -113 27 82 35 83
-187 -29 -413 -207 -644 -276 -722 -215 -16 12 -26 30 -26 45 0 28 138 307
198 400 22 33 61 78 88 99 27 22 53 42 58 46 5 5 2 23 -8 42 -9 19 -16 42 -16
50 0 25 115 270 155 331 21 32 52 66 68 76 16 10 72 26 126 35 160 28 147 20
212 125 32 52 58 98 59 103 0 4 -63 7 -140 7 -87 0 -140 4 -140 10 0 6 81 172
180 370 99 198 177 359 173 359 -5 -1 -134 -27 -288 -58z"/>
<path d="M2411 14608 c-10 -24 -62 -141 -115 -262 -53 -120 -95 -219 -94 -220
2 -1 64 -56 138 -122 74 -66 169 -150 211 -186 l76 -68 104 61 c57 34 163 95
234 137 72 41 135 80 142 86 9 8 -3 75 -48 280 -33 149 -62 272 -65 275 -2 3
-105 15 -227 27 -122 12 -248 25 -280 29 l-57 6 -19 -43z"/>
<path d="M17005 13955 c-271 -60 -576 -288 -798 -597 -34 -48 -86 -106 -115
-130 -43 -34 -52 -46 -46 -63 14 -38 6 -110 -20 -205 -24 -84 -27 -108 -23
-210 4 -139 26 -205 93 -279 160 -178 474 -148 810 77 49 33 111 80 138 103
97 86 249 285 369 485 l37 62 91 22 c172 43 369 162 527 320 47 47 83 81 81
75 -2 -5 -38 -75 -79 -155 -74 -143 -127 -213 -204 -267 -28 -19 -28 -21 -12
-45 9 -13 17 -35 18 -49 1 -21 -183 -402 -313 -647 -22 -39 -39 -77 -39 -82 0
-6 72 -10 195 -10 l194 0 112 223 c243 485 254 503 354 574 l29 21 -19 42 -19
42 34 66 c126 242 256 355 445 384 64 10 78 9 90 -3 20 -20 12 -40 -92 -245
-83 -162 -116 -204 -207 -269 -28 -20 -29 -21 -12 -52 9 -18 16 -43 16 -57 0
-13 -45 -113 -100 -222 -55 -109 -107 -221 -116 -247 -34 -101 -1 -201 79
-244 52 -28 164 -24 267 11 163 54 390 173 562 292 43 30 79 54 81 54 2 0 3
-9 2 -20 -3 -49 15 -142 38 -191 32 -71 78 -116 155 -152 34 -16 62 -30 62
-32 0 -1 -38 -24 -84 -50 -168 -94 -296 -216 -368 -350 -98 -183 34 -307 312
-292 61 3 136 15 180 27 105 30 252 109 350 187 135 109 195 189 317 425 l107
207 157 60 c178 69 493 183 556 203 41 12 42 13 48 71 4 32 5 60 3 63 -3 2
-152 -46 -332 -107 -179 -62 -329 -110 -332 -107 -2 3 42 94 98 204 107 205
102 198 212 279 27 19 27 21 12 50 -9 17 -16 41 -16 54 0 13 36 92 79 175 64
123 236 459 249 489 2 4 -86 7 -195 7 l-199 0 -17 -36 -17 -36 -37 33 c-62 54
-117 73 -213 73 -280 0 -586 -201 -866 -569 -86 -114 -137 -168 -193 -207 -22
-15 -23 -20 -13 -43 18 -39 15 -87 -14 -194 l-26 -98 -82 -48 c-259 -156 -454
-226 -500 -180 -19 20 -21 16 97 251 96 191 114 216 202 280 l29 21 -19 42
-19 43 114 226 c109 219 113 230 117 302 4 63 1 80 -17 108 -33 53 -77 67
-210 65 -130 -2 -252 -29 -395 -86 -47 -19 -85 -32 -85 -30 0 2 9 22 20 43 11
22 17 40 14 40 -20 0 -523 -102 -541 -110 -12 -5 -39 -40 -60 -79 -33 -61 -42
-71 -66 -71 -19 0 -50 -19 -100 -61 -123 -104 -256 -186 -332 -203 -16 -4 -38
-9 -47 -12 -16 -5 -17 4 -11 119 5 109 3 132 -15 193 -38 123 -126 217 -236
249 -61 18 -199 18 -281 0z m80 -179 c80 -34 86 -135 19 -357 -4 -14 -11 -15
-39 -9 -67 15 -121 56 -149 112 -29 58 -32 95 -12 151 18 50 42 76 91 98 49
22 47 22 90 5z m3549 -20 c53 -22 80 -69 84 -147 3 -56 0 -73 -22 -117 -31
-61 -87 -106 -159 -127 -63 -19 -105 -19 -182 -1 -33 8 -62 13 -64 10 -10 -10
39 -84 93 -139 l59 -60 -139 -273 c-107 -212 -145 -276 -164 -284 -14 -6 -54
-13 -90 -15 -56 -4 -70 -1 -100 19 -56 37 -85 107 -84 203 1 77 14 164 35 232
7 23 28 45 69 74 l59 41 -25 51 c-32 62 -29 94 23 197 67 136 227 273 385 330
63 23 174 26 222 6z m-3939 -233 c22 -119 128 -232 265 -283 33 -12 60 -28 60
-35 0 -16 -112 -202 -175 -291 -72 -102 -240 -266 -299 -293 -57 -26 -103 -23
-132 10 -30 33 -25 187 10 303 44 147 61 177 116 215 28 19 50 37 50 41 0 4
-9 29 -21 55 -18 41 -19 53 -9 92 16 66 102 223 121 223 4 0 10 -17 14 -37z
m3315 -1208 c0 -14 -102 -220 -134 -269 -72 -113 -188 -216 -243 -216 -13 0
-35 11 -48 24 -20 20 -24 31 -19 58 16 92 114 220 229 299 93 63 215 123 215
104z"/>
<path d="M14027 11960 c-121 -31 -179 -111 -180 -250 -2 -129 37 -192 209
-335 125 -105 154 -149 154 -229 0 -64 -31 -96 -93 -96 -70 0 -91 23 -97 107
l-5 68 -87 3 -88 3 0 -50 c0 -88 18 -146 61 -195 53 -60 110 -81 219 -81 109
0 166 21 219 81 83 94 81 251 -4 366 -19 27 -83 88 -143 137 -137 115 -157
144 -157 229 0 55 3 66 24 83 30 25 101 25 131 1 15 -12 24 -33 28 -72 l7 -55
65 -3 c35 -2 75 0 88 3 22 5 23 9 17 63 -13 106 -58 173 -140 208 -47 19 -174
27 -228 14z"/>
<path d="M18367 11960 c-56 -15 -112 -46 -137 -77 -52 -66 -54 -78 -58 -401
-5 -429 7 -483 133 -547 53 -27 67 -30 154 -30 82 0 104 4 152 26 72 34 109
82 126 162 15 75 18 581 3 672 -20 124 -109 193 -257 201 -43 2 -95 -1 -116
-6z m146 -151 c44 -20 47 -42 47 -374 0 -332 -3 -354 -47 -374 -53 -24 -123
-7 -142 36 -15 33 -15 643 0 677 19 42 89 59 142 35z"/>
<path d="M20757 11963 c-10 -16 -227 -516 -225 -518 2 0 64 -55 138 -121 74
-66 169 -149 211 -186 l75 -67 239 139 c131 76 241 142 246 147 4 4 -12 98
-37 208 -24 110 -51 233 -60 272 -13 60 -19 74 -37 78 -12 2 -121 14 -242 25
-121 11 -239 23 -261 26 -23 3 -44 2 -47 -3z"/>
<path d="M4310 11435 l0 -525 95 0 95 0 0 225 0 225 105 0 105 0 0 -225 0
-225 95 0 95 0 0 525 0 525 -95 0 -95 0 0 -225 0 -225 -105 0 -105 0 0 225 0
225 -95 0 -95 0 0 -525z"/>
<path d="M5460 11954 c0 -8 -179 -994 -185 -1021 -5 -22 -3 -23 79 -23 97 0
88 -9 107 113 l12 77 117 0 117 0 12 -77 c19 -123 10 -113 112 -113 64 0 89 3
89 13 1 6 -41 243 -92 525 l-92 512 -138 0 c-76 0 -138 -3 -138 -6z m174 -426
c21 -128 40 -245 43 -260 l6 -28 -93 0 -92 0 4 28 c53 319 84 492 88 492 3 0
23 -105 44 -232z"/>
<path d="M6290 11435 l0 -525 95 0 95 0 0 525 0 525 -95 0 -95 0 0 -525z"/>
<path d="M6890 11436 l0 -526 95 0 95 0 0 216 0 216 65 -4 c106 -7 109 -11
116 -227 3 -98 9 -183 13 -190 5 -7 42 -11 102 -11 74 0 93 3 87 13 -4 6 -10
93 -14 192 -6 204 -17 243 -85 288 l-35 25 35 21 c20 13 44 41 58 69 20 41 23
62 23 162 0 104 -3 121 -25 165 -21 42 -35 55 -85 80 -59 30 -62 30 -252 33
l-193 4 0 -526z m345 349 c23 -23 25 -31 25 -130 0 -104 -1 -107 -29 -136 -26
-26 -36 -29 -90 -29 l-61 0 0 160 0 160 65 0 c57 0 69 -3 90 -25z"/>
<path d="M8577 11949 c-135 -32 -197 -130 -184 -290 7 -87 38 -145 91 -175
l39 -22 -31 -16 c-40 -21 -77 -70 -91 -121 -16 -60 -14 -223 5 -285 9 -32 29
-67 48 -86 72 -72 211 -71 284 2 34 34 38 32 44 -16 3 -25 5 -25 100 -28 l98
-3 -10 26 c-6 15 -10 121 -10 236 l0 209 25 0 c24 0 25 2 25 75 0 73 -1 75
-25 75 -24 0 -25 3 -25 60 l0 61 -92 -3 -93 -3 -3 -57 -3 -58 -65 0 c-59 0
-68 3 -95 29 -28 28 -29 34 -29 116 0 78 2 88 25 110 23 24 30 25 150 25 l125
0 0 75 0 75 -132 -1 c-73 -1 -150 -5 -171 -10z m193 -709 c0 -136 -1 -142 -25
-165 -18 -19 -35 -25 -70 -25 -35 0 -52 6 -70 25 -23 22 -25 31 -25 124 0 55
4 111 10 125 13 36 56 55 123 56 l57 0 0 -140z"/>
<path d="M9910 11435 l0 -525 85 0 85 0 1 383 0 382 55 -185 c31 -102 81 -273
113 -380 l58 -195 97 -3 96 -3 0 526 0 525 -85 0 -85 0 -2 -310 -3 -309 -90
309 -90 310 -117 0 -118 0 0 -525z"/>
<path d="M11050 11953 c0 -8 -178 -987 -185 -1020 -5 -22 -3 -23 79 -23 97 0
88 -9 107 113 l12 77 117 0 117 0 12 -77 c19 -123 9 -113 115 -113 l92 0 -95
525 -96 525 -137 0 c-76 0 -138 -3 -138 -7z m174 -425 c21 -128 40 -245 43
-260 l6 -28 -93 0 -92 0 5 28 c3 15 22 132 43 260 21 127 41 232 44 232 3 0
23 -105 44 -232z"/>
<path d="M11880 11435 l0 -525 95 0 95 0 0 525 0 525 -95 0 -95 0 0 -525z"/>
<path d="M12480 11435 l0 -525 251 0 250 0 -2 75 -2 75 -153 0 -154 0 0 450 0
450 -95 0 -95 0 0 -525z"/>
<path d="M14720 11885 l0 -75 100 0 100 0 0 -450 0 -450 95 0 95 0 0 450 0
450 95 0 95 0 0 75 0 75 -290 0 -290 0 0 -75z"/>
<path d="M15652 11518 c3 -432 4 -444 25 -483 44 -82 109 -122 216 -132 131
-12 235 33 284 121 l28 51 3 443 3 442 -91 0 -90 0 0 -430 0 -431 -25 -24
c-18 -19 -35 -25 -70 -25 -35 0 -52 6 -70 25 l-25 24 0 431 0 430 -95 0 -96 0
3 -442z"/>
<path d="M16620 11435 l0 -527 198 4 c175 3 202 6 243 24 56 26 85 55 113 114
20 43 21 59 21 386 l0 340 -30 59 c-27 52 -38 63 -89 90 -59 30 -60 30 -258
33 l-198 4 0 -527z m365 349 l25 -27 0 -324 0 -324 -25 -24 c-21 -22 -33 -25
-99 -25 l-76 0 -2 375 -3 375 78 0 c71 0 80 -2 102 -26z"/>
<path d="M17590 11435 l0 -525 95 0 95 0 0 525 0 525 -95 0 -95 0 0 -525z"/>
<path d="M3510 10375 l0 -125 8415 0 8415 0 0 125 0 125 -8415 0 -8415 0 0
-125z"/>
</g>
</svg>
